<?xml version="1.0" standalone="no"?>
<!DOCTYPE svg PUBLIC "-//W3C//DTD SVG 20010904//EN"
 "http://www.w3.org/TR/2001/REC-SVG-20010904/DTD/svg10.dtd">
<svg version="1.0" xmlns="http://www.w3.org/2000/svg"
 width="794.000000pt" height="637.000000pt" viewBox="0 0 794.000000 637.000000"
 preserveAspectRatio="xMidYMid meet">

<g transform="translate(0.000000,637.000000) scale(0.100000,-0.100000)"
fill="#000000" stroke="none">
<path d="M1337 6022 c-22 -24 -22 -61 -1 -91 9 -13 66 -78 127 -145 60 -66
127 -148 148 -181 42 -65 107 -211 175 -395 23 -63 59 -152 79 -197 42 -96 56
-179 32 -189 -23 -9 -110 12 -285 68 l-157 50 -137 139 c-141 143 -161 156
-202 126 -16 -11 -14 -17 25 -72 23 -32 87 -108 142 -168 l101 -108 166 -84
c202 -102 314 -188 545 -420 153 -152 162 -164 194 -240 60 -148 105 -210 255
-360 143 -143 198 -189 210 -178 9 9 7 78 -3 106 -5 13 -64 72 -130 131 -66
60 -130 124 -142 143 -12 19 -41 89 -64 156 -24 67 -52 148 -64 179 -29 78
-28 114 3 122 15 4 100 -17 227 -54 458 -133 504 -157 729 -376 144 -139 184
-164 237 -143 23 8 24 13 18 52 -19 111 -80 209 -177 282 -148 111 -235 159
-499 278 -151 67 -291 133 -312 146 -23 14 -72 69 -121 135 -97 130 -125 157
-269 255 -60 41 -122 90 -138 110 -17 20 -91 161 -164 313 -73 153 -158 315
-189 361 -62 95 -161 192 -239 237 -60 34 -97 38 -120 12z"/>
<path d="M1635 4236 c-1289 -702 -1808 -1374 -1584 -2051 69 -206 228 -428
437 -609 l43 -37 -150 -442 c-82 -243 -159 -468 -170 -499 l-20 -58 374 0 373
0 102 305 101 304 77 -38 c180 -90 479 -211 728 -295 l129 -43 36 -114 35
-114 372 -3 c205 -1 372 -1 372 0 0 2 -222 694 -493 1538 l-492 1535 -335 3
-335 2 -274 -812 c-151 -447 -278 -817 -282 -822 -12 -13 -220 202 -258 266
-155 266 -122 547 106 893 211 320 615 701 1133 1068 153 108 178 127 170 127
-3 0 -90 -47 -195 -104z m73 -2282 c79 -251 140 -459 137 -462 -10 -10 -485
131 -523 157 -11 7 11 85 109 385 67 207 126 376 129 376 4 0 70 -205 148
-456z"/>
<path d="M7318 1545 c-92 -23 -177 -72 -243 -139 -99 -101 -145 -211 -145
-351 0 -140 46 -250 146 -352 114 -115 270 -168 428 -145 79 12 81 12 96 -10
48 -70 37 -70 149 6 56 39 101 77 101 85 0 9 -11 29 -24 46 l-24 30 28 35
c124 158 140 392 38 559 -33 54 -114 136 -167 171 -106 67 -267 95 -383 65z
m207 -264 c107 -49 152 -128 146 -262 0 -19 -7 -43 -14 -53 -11 -16 -18 -10
-62 54 -27 39 -56 75 -64 80 -11 6 -41 -9 -102 -51 -48 -33 -93 -66 -99 -74
-9 -11 0 -30 40 -91 l52 -77 -38 8 c-56 10 -87 29 -131 79 -60 68 -77 150 -51
239 16 53 92 134 143 152 56 20 133 18 180 -4z"/>
<path d="M2742 1528 c-7 -10 31 -141 141 -485 l151 -473 112 0 112 0 157 470
c86 259 155 477 151 485 -4 12 -28 15 -125 15 l-120 0 -81 -252 c-45 -139 -85
-256 -89 -261 -4 -4 -43 109 -87 250 l-79 258 -116 3 c-85 2 -119 -1 -127 -10z"/>
<path d="M3592 1518 c-19 -19 -17 -921 2 -937 9 -8 51 -11 122 -9 l109 3 0
475 0 475 -110 3 c-77 2 -114 -1 -123 -10z"/>
<path d="M4084 1153 c-70 -208 -141 -417 -157 -465 -16 -47 -27 -93 -24 -102
5 -13 26 -16 125 -16 l119 0 18 55 19 55 132 0 131 0 19 -52 19 -53 116 -3
c85 -2 119 1 126 10 7 9 -34 150 -140 481 l-151 467 -112 0 -112 0 -128 -377z
m266 -169 l19 -54 -49 0 -49 0 20 58 c29 86 31 90 37 68 2 -10 12 -43 22 -72z"/>
<path d="M4654 1517 c-2 -7 -3 -62 -2 -123 l3 -109 83 -3 82 -3 0 -342 c0
-254 3 -346 12 -355 16 -16 210 -16 226 0 9 9 12 101 12 355 l0 342 83 3 82 3
0 120 0 120 -288 3 c-232 2 -288 0 -293 -11z"/>
<path d="M5635 1519 c-161 -33 -298 -154 -356 -315 -30 -83 -30 -225 0 -308
92 -254 363 -385 610 -294 124 46 210 124 267 243 43 90 58 183 44 273 -13 80
-63 191 -114 248 -103 119 -296 184 -451 153z m178 -252 c90 -38 141 -117 141
-217 0 -134 -94 -230 -226 -230 -197 1 -301 236 -170 382 20 23 55 49 77 59
47 22 133 24 178 6z"/>
<path d="M6275 1508 c-3 -7 -4 -220 -3 -473 l3 -460 115 0 115 0 5 115 c5 105
7 115 24 115 13 0 40 -34 91 -115 l72 -115 130 -3 c111 -2 132 0 137 13 3 10
-30 74 -90 170 l-95 154 37 48 c55 72 68 108 68 198 1 71 -3 88 -32 147 -54
109 -156 183 -286 207 -85 16 -285 15 -291 -1z m282 -249 c49 -18 83 -59 83
-99 0 -27 -7 -43 -27 -62 -26 -25 -72 -48 -94 -48 -5 0 -9 48 -9 110 0 62 4
110 9 110 5 0 22 -5 38 -11z"/>
<path d="M290 125 l0 -115 80 0 c73 0 82 2 110 27 59 53 48 153 -20 188 -18 9
-56 15 -100 15 l-70 0 0 -115z m156 61 c21 -18 28 -32 28 -61 0 -52 -38 -85
-100 -85 l-44 0 0 85 0 85 44 0 c33 0 52 -6 72 -24z"/>
<path d="M910 125 c0 -108 1 -115 20 -115 16 0 20 7 20 35 0 32 2 35 30 35 23
0 35 -8 52 -35 15 -23 31 -35 46 -35 27 0 27 4 1 42 l-21 29 21 20 c14 14 21
32 21 59 0 58 -33 80 -121 80 l-69 0 0 -115z m132 68 c40 -36 10 -83 -53 -83
l-39 0 0 50 0 50 37 0 c20 0 45 -7 55 -17z"/>
<path d="M1521 226 c-70 -39 -67 -168 5 -206 35 -19 103 -19 138 0 73 38 75
169 5 206 -35 18 -116 18 -148 0z m120 -29 c69 -53 38 -157 -46 -157 -66 0
-104 65 -73 123 17 32 39 46 73 46 17 0 37 -5 46 -12z"/>
<path d="M2110 125 c0 -108 1 -115 20 -115 17 0 19 8 22 75 l3 75 59 -75 c36
-45 66 -75 77 -75 17 0 19 10 19 115 0 108 -1 115 -20 115 -17 0 -19 -8 -22
-75 l-3 -75 -60 75 c-86 107 -95 104 -95 -40z"/>
<path d="M2730 125 l0 -115 85 0 c69 0 85 3 85 15 0 12 -14 15 -65 15 l-65 0
0 35 0 35 55 0 c42 0 55 3 55 15 0 12 -13 15 -55 15 l-55 0 0 35 0 35 65 0
c51 0 65 3 65 15 0 12 -16 15 -85 15 l-85 0 0 -115z"/>
<path d="M3720 220 c-24 -24 -26 -63 -4 -84 8 -9 35 -21 59 -27 49 -12 70 -31
62 -53 -8 -21 -46 -24 -90 -8 -33 13 -40 13 -47 1 -12 -19 -4 -27 42 -40 93
-25 160 23 132 95 -3 9 -30 23 -59 32 -29 8 -59 21 -65 29 -28 34 42 61 91 35
15 -9 21 -7 26 6 9 23 -14 34 -74 34 -40 0 -58 -5 -73 -20z"/>
<path d="M4270 125 l0 -115 85 0 c69 0 85 3 85 15 0 12 -14 15 -65 15 l-65 0
0 35 0 35 55 0 c42 0 55 3 55 15 0 12 -13 15 -55 15 l-55 0 0 35 0 35 65 0
c51 0 65 3 65 15 0 12 -16 15 -85 15 l-85 0 0 -115z"/>
<path d="M4840 125 c0 -108 1 -115 20 -115 16 0 20 7 20 35 0 32 2 35 30 35
23 0 35 -8 52 -35 15 -23 31 -35 46 -35 27 0 27 4 1 42 l-21 29 21 20 c14 14
21 32 21 59 0 58 -33 80 -121 80 l-69 0 0 -115z m132 68 c40 -36 10 -83 -53
-83 l-39 0 0 50 0 50 37 0 c20 0 45 -7 55 -17z"/>
<path d="M5389 218 c5 -13 27 -63 49 -113 35 -76 45 -90 66 -93 14 -2 26 -1
26 1 0 3 22 55 50 116 48 108 48 111 26 111 -19 0 -29 -14 -61 -85 -21 -48
-41 -82 -45 -78 -4 4 -21 43 -40 86 -27 65 -36 77 -56 77 -20 0 -22 -3 -15
-22z"/>
<path d="M6000 125 c0 -108 1 -115 20 -115 19 0 20 7 20 115 0 108 -1 115 -20
115 -19 0 -20 -7 -20 -115z"/>
<path d="M6471 226 c-32 -18 -50 -53 -51 -99 0 -82 62 -135 145 -123 48 8 89
41 62 52 -8 3 -24 1 -36 -5 -34 -19 -80 -13 -106 14 -71 71 25 185 109 130 20
-13 25 -14 35 -1 31 37 -101 64 -158 32z"/>
<path d="M7030 125 l0 -115 85 0 c69 0 85 3 85 15 0 12 -14 15 -65 15 l-65 0
0 35 0 35 55 0 c42 0 55 3 55 15 0 12 -13 15 -55 15 l-55 0 0 35 0 35 65 0
c51 0 65 3 65 15 0 12 -16 15 -85 15 l-85 0 0 -115z"/>
<path d="M7590 220 c-24 -24 -26 -63 -4 -84 8 -9 35 -21 59 -27 49 -12 70 -31
62 -53 -8 -21 -46 -24 -90 -8 -33 13 -40 13 -47 1 -12 -19 -4 -27 42 -40 93
-25 160 23 132 95 -3 9 -30 23 -59 32 -29 8 -59 21 -65 29 -28 34 42 61 91 35
15 -9 21 -7 26 6 9 23 -14 34 -74 34 -40 0 -58 -5 -73 -20z"/>
</g>
</svg>
